<svg width="124" height="38" viewBox="0 0 124 38" fill="none" xmlns="http://www.w3.org/2000/svg">
<g clip-path="url(#clip0_27_5703)">
<path d="M49.2666 15.1765V9.47302H45.4315V15.1765H40.7441V0H45.4315V6.09684H49.2666V0H53.954V15.1765H49.2666Z" fill="#3E3E3E"/>
<path d="M65.6873 14.6521C64.8678 15.111 63.8517 15.3732 62.3111 15.3732C56.5748 15.3732 55.2637 12.5542 55.2637 7.76852V0H59.951V7.76852C59.951 11.7347 60.9016 11.997 62.2128 11.997C63.0322 11.9642 63.6223 11.8987 64.0484 11.702C64.7696 11.2431 65.0318 10.1614 65.0318 7.76852V0H68.3751V7.76852C68.3751 10.063 68.3752 13.2426 65.6873 14.6521Z" fill="#3E3E3E"/>
<path d="M79.8143 15.1765L73.029 6.39184V15.1765H69.6855V0H73.6846L78.9617 6.78519V0H82.338V15.1765H79.8143Z" fill="#3E3E3E"/>
<path d="M92.2057 15.1765H87.5188V3.34342H83.6836V0H96.106V3.34342H92.2383V15.1765H92.2057Z" fill="#3E3E3E"/>
<path d="M107.055 15.1765H97.3848V0H108.431L107.087 3.34342H102.073V6.12961H106.236L104.924 9.47302H102.073V11.8003H108.399L107.055 15.1765Z" fill="#3E3E3E"/>
<path d="M116.231 0C118.526 0 119.968 0.885024 120.788 1.60615C121.869 2.62229 122.493 3.96622 122.493 5.37571C122.493 6.75241 121.935 8.06359 120.887 8.98138C120.656 9.17802 120.427 9.34195 120.198 9.50581L123.148 15.1437H118.002L115.511 10.4564H114.396V15.1765H109.709V0H116.231ZM117.706 6.65407C117.969 6.35907 118.133 5.90016 118.133 5.44126C118.133 3.76954 116.887 3.34342 116.231 3.34342H114.396V7.11297H116.527C117.084 7.11297 117.477 6.98186 117.706 6.65407Z" fill="#3E3E3E"/>
<path d="M50.6105 34.6467H45.9232V28.3204L40.7441 19.5029H45.8577L48.7094 24.8459L51.5939 19.5029H55.429L50.6433 28.3532V34.6467H50.6105Z" fill="#3E3E3E"/>
<path d="M66.3768 34.6472H56.707V19.4707H67.7534L66.4096 22.8141H61.3944V25.6003H65.5573L64.2461 28.9437H61.3944V31.271H67.7207L66.3768 34.6472Z" fill="#3E3E3E"/>
<path d="M79.0941 31.8933H72.8003L71.4892 34.6795H67.7852L74.9309 19.5029H78.4384L85.453 34.6795H80.4048L79.0941 31.8933ZM74.3409 28.5171H77.5207L75.9473 25.1409L74.3409 28.5171Z" fill="#3E3E3E"/>
<path d="M96.8613 34.6472L90.0754 25.8625V34.6472H86.7324V19.4707H90.7311L96.0087 26.2559V19.4707H99.385V34.6472H96.8613Z" fill="#3E3E3E"/>
<path d="M110.562 34.6467H105.874V28.3204L100.695 19.5029H105.809L108.661 24.8459L111.545 19.5029H115.38L110.595 28.3532V34.6467H110.562Z" fill="#3E3E3E"/>
<path d="M31.5659 0V3.14675H28.4191V34.7127H6.32626V37.8594H3.17951V25.2396H18.946V15.7665H12.6198V22.0928H3.17951V3.14675H0V0H12.6198V6.29351H18.946V0H31.5659Z" fill="#3E3E3E"/>
</g>
<defs>
<clipPath id="clip0_27_5703">
<rect width="123.422" height="37.8594" fill="white"/>
</clipPath>
</defs>
</svg>
