<svg width="144" height="35" viewBox="0 0 144 35" fill="none" xmlns="http://www.w3.org/2000/svg">
<g clip-path="url(#clip0_27_5727)">
<path d="M17.6396 10.3072L13.929 14.0178L3.53529 3.62402L0 7.15934L10.3937 17.5531L0 27.9468L3.53529 31.4821L13.929 21.0876L24.3228 31.4813L27.858 27.946L17.4643 17.5531L21.1749 13.8417C19.6163 13.1176 18.3641 11.8655 17.6396 10.3072Z" fill="#3E3E3E"/>
<path d="M24.2254 5.58709e-08C23.0069 0.000403165 21.8082 0.307524 20.7396 0.893054C19.671 1.47858 18.767 2.32369 18.1109 3.35046C17.4548 4.37724 17.0677 5.55264 16.9854 6.76835C16.903 7.98403 17.1279 9.20095 17.6395 10.3069L24.3227 3.62367L27.8579 7.15895L21.1755 13.8414C22.1606 14.2978 23.2355 14.5274 24.3211 14.5132C25.4068 14.499 26.4753 14.2415 27.4481 13.7595C28.421 13.2775 29.2732 12.5833 29.9422 11.7282C30.6111 10.8731 31.0796 9.87876 31.3133 8.81851C31.5469 7.75826 31.5396 6.6591 31.292 5.60202C31.0445 4.54494 30.5629 3.55689 29.8827 2.71066C29.2026 1.86443 28.3412 1.18159 27.3621 0.71246C26.383 0.243333 25.3111 -0.000134655 24.2254 5.58709e-08Z" fill="#3E3E3E"/>
<path d="M45.0678 7.62815H51.0653V12.7565H53.4236V0.347656H51.0653V5.51801H45.0678V0.347656H42.7109V12.7565H45.0678V7.62815Z" fill="#3E3E3E"/>
<path d="M60.226 2.78711C57.2063 2.78711 55.2832 4.66965 55.2832 7.87421C55.2832 11.0597 57.1032 13.0247 60.226 13.0247C63.3076 13.0247 65.1275 11.0597 65.1275 7.87421C65.1275 4.67039 63.2045 2.78711 60.226 2.78711ZM60.2054 11.1002C58.3442 11.1002 57.5164 9.86061 57.5164 7.85365C57.5164 5.84661 58.4061 4.66965 60.2054 4.66965C62.0047 4.66965 62.9143 5.84808 62.9143 7.85365C62.9143 9.85917 62.0459 11.1009 60.2054 11.1009V11.1002Z" fill="#3E3E3E"/>
<path d="M75.5901 12.7562V3.03418H73.3563V8.53522C73.3563 10.0031 72.3841 10.9967 70.875 10.9967C69.5497 10.9967 69.0341 10.1268 69.0341 8.94913V3.03713H66.8008V9.53027C66.8008 11.6397 67.773 13.0258 69.8205 13.0258C71.4338 13.0258 72.6748 11.9947 73.2082 10.1917H73.4153V12.7562H75.5901Z" fill="#3E3E3E"/>
<path d="M82.0014 7.02802C80.1605 6.69728 79.747 6.21781 79.747 5.53874C79.747 4.81474 80.3257 4.38093 81.4631 4.38093C82.6218 4.38093 83.2005 4.83537 83.4693 6.03442L85.4754 5.60135C85.0826 3.88379 84.1727 2.78711 81.505 2.78711C78.9195 2.78711 77.6374 3.90367 77.6374 5.65954C77.6374 7.27251 78.5479 8.14236 81.1327 8.65788C83.0565 9.00995 83.5941 9.3819 83.5941 10.1479C83.5941 10.975 82.9736 11.3889 81.7943 11.3889C80.2228 11.3889 79.54 10.6443 79.2301 9.46589L77.2246 9.8783C77.5756 11.7395 78.6089 13.0225 81.7532 13.0225C84.5457 13.0225 85.7442 11.8639 85.7442 10.0654C85.7442 8.53783 84.8755 7.56493 82.0014 7.02802Z" fill="#3E3E3E"/>
<path d="M88.0175 9.79829C88.0175 11.6183 88.9267 13.025 91.0576 13.025C92.0291 13.025 92.5255 12.9005 93.2495 12.673L92.9815 10.688C92.5049 10.8354 92.0709 10.9355 91.5739 10.9355C90.6023 10.9355 90.2479 10.4398 90.2479 9.48749V4.83492H93.1021V3.03634H90.2479V0.40918H88.0148V3.03634H86.6504V4.83492H88.0148L88.0175 9.79829Z" fill="#3E3E3E"/>
<path d="M104.107 7.87422C104.107 4.66965 102.184 2.78711 99.2058 2.78711C96.1856 2.78711 94.2617 4.66965 94.2617 7.87422C94.2617 11.0597 96.0821 13.0247 99.2058 13.0247C102.288 13.0239 104.107 11.0597 104.107 7.87422ZM96.4962 7.85365C96.4962 5.84808 97.3854 4.66965 99.1852 4.66965C100.984 4.66965 101.894 5.84808 101.894 7.85365C101.894 9.85917 101.025 11.1002 99.1852 11.1002C97.323 11.1002 96.4962 9.86061 96.4962 7.85365Z" fill="#3E3E3E"/>
<path d="M108.077 7.25407C108.077 5.78621 109.07 4.79265 110.559 4.79265C111.902 4.79265 112.42 5.66174 112.42 6.84017V12.7551H114.629V6.26127C114.629 4.15261 113.657 2.78711 111.631 2.78711C109.996 2.78711 108.759 3.80056 108.218 5.60061H108.031V3.03605H105.859V12.7581H108.074L108.077 7.25407Z" fill="#3E3E3E"/>
<path d="M42.7109 31.1374H51.6449V29.0899H45.0678V25.8639H51.0454V23.837H45.0678V20.7768H51.6655V18.7285H42.7109V31.1374Z" fill="#3E3E3E"/>
<path d="M62.4187 21.6451V21.4189H60.0818L57.9724 25.4301H57.7242L55.4697 21.4189H52.9471V21.6451L56.0494 26.0922L52.9258 30.9105V31.1381H55.3666L57.4554 27.0431H57.7448L59.9993 31.1381H62.5012V30.9105L59.399 26.403L62.4187 21.6451Z" fill="#3E3E3E"/>
<path d="M69.7387 21.1689C67.9812 21.1689 66.9052 22.2648 66.3882 23.9412H66.2408V21.4208H64.0312V34.2812H66.2408V28.5533H66.3882C66.8639 30.2472 68.0011 31.4072 69.7764 31.4072C71.969 31.4072 73.3115 29.6072 73.3115 26.2988C73.3115 22.9904 72.0341 21.1689 69.7387 21.1689ZM68.7253 29.4422C67.2359 29.4422 66.2438 28.3257 66.2438 26.6914V25.9467C66.2438 24.2528 67.216 23.1752 68.7479 23.1752C70.3818 23.1752 71.1264 24.1886 71.1264 26.2988C71.125 28.3868 70.3592 29.4422 68.7253 29.4422Z" fill="#3E3E3E"/>
<path d="M79.4583 21.1689C76.4381 21.1689 74.5156 23.0522 74.5156 26.2568C74.5156 29.4422 76.3353 31.4072 79.4583 31.4072C82.5395 31.4072 84.3598 29.4422 84.3598 26.2568C84.3598 23.0522 82.4367 21.1689 79.4583 21.1689ZM79.4377 29.4828C77.5763 29.4828 76.7487 28.2432 76.7487 26.2362C76.7487 24.2292 77.638 23.0522 79.4377 23.0522C81.2368 23.0522 82.1466 24.2307 82.1466 26.2362C82.1466 28.2417 81.2779 29.4828 79.4377 29.4828Z" fill="#3E3E3E"/>
<path d="M91.8848 21.1689C90.2509 21.1689 89.0127 22.1824 88.4724 23.9824H88.2866V21.4208H86.1152V31.1429H88.3284V25.6367C88.3284 24.1688 89.3205 23.1752 90.8097 23.1752C92.1542 23.1752 92.6705 24.0443 92.6705 25.2227V31.1377H94.8837V24.6438C94.8837 22.5344 93.9115 21.1689 91.8848 21.1689Z" fill="#3E3E3E"/>
<path d="M101.439 21.1689C98.3986 21.1689 96.5371 23.1134 96.5371 26.4019C96.5371 29.6492 98.4603 31.3859 101.439 31.3859C104.045 31.3859 105.269 30.1868 105.72 28.4288L103.821 27.8904C103.552 28.8213 103.011 29.5668 101.464 29.5668C99.8096 29.5668 98.9203 28.6763 98.7551 26.9152H105.766C105.807 26.4196 105.807 25.9851 105.807 25.6116C105.803 22.9483 104.375 21.1689 101.439 21.1689ZM98.7709 25.4297C98.9772 23.6923 99.8672 22.8858 101.378 22.8858C102.929 22.8858 103.672 23.7548 103.755 25.4297H98.7709Z" fill="#3E3E3E"/>
<path d="M113.372 21.1689C111.738 21.1689 110.5 22.1824 109.96 23.9824H109.774V21.4208H107.602V31.1429H109.811V25.6367C109.811 24.1688 110.804 23.1752 112.294 23.1752C113.638 23.1752 114.155 24.0443 114.155 25.2227V31.1377H116.368V24.6438C116.371 22.5344 115.398 21.1689 113.372 21.1689Z" fill="#3E3E3E"/>
<path d="M122.697 29.3183C121.726 29.3183 121.372 28.8219 121.372 27.8704V23.2177H124.226V21.4214H121.372V18.792H119.142V21.4214H117.777V23.2207H119.142V28.1833C119.142 30.0033 120.052 31.4108 122.182 31.4108C123.154 31.4108 123.65 31.2863 124.374 31.0587L124.106 29.0738C123.628 29.2152 123.192 29.3183 122.697 29.3183Z" fill="#3E3E3E"/>
<path d="M128.405 17.9639H125.984V19.7624H128.405V17.9639Z" fill="#3E3E3E"/>
<path d="M128.302 21.4189H126.068V31.1388H128.302V21.4189Z" fill="#3E3E3E"/>
<path d="M134.795 21.1904C132.314 21.1904 130.928 22.3689 130.555 24.2102L132.665 24.6867C132.914 23.5481 133.577 22.9677 134.712 22.9677C136.078 22.9677 136.595 23.6917 136.595 24.9563V25.6192H133.699C131.237 25.6192 130.184 26.8815 130.184 28.6183C130.184 30.5207 131.404 31.3485 133.141 31.3485C134.857 31.3485 135.974 30.3977 136.471 28.8252H136.698V31.1416H138.807V24.9335C138.807 22.514 137.608 21.1904 134.795 21.1904ZM136.597 27.4774C136.597 28.6971 135.566 29.6074 134.011 29.6074C132.75 29.6074 132.317 29.0079 132.317 28.3045C132.317 27.498 132.958 27.0841 134.075 27.0841H136.597V27.4774Z" fill="#3E3E3E"/>
<path d="M143.355 17.8613H141.121V31.1378H143.355V17.8613Z" fill="#3E3E3E"/>
</g>
<defs>
<clipPath id="clip0_27_5727">
<rect width="143.981" height="34.2812" fill="white"/>
</clipPath>
</defs>
</svg>
