<svg width="114" height="34" viewBox="0 0 114 34" fill="none" xmlns="http://www.w3.org/2000/svg">
<g clip-path="url(#clip0_27_5717)">
<path d="M40.5227 12.6406V13.0158C40.5227 12.8867 40.5227 12.7703 40.5098 12.6406H40.5227Z" fill="#3E3E3E"/>
<path d="M74.2004 0.621224V33.1207H64.5357C64.2899 33.1207 64.0567 33.108 63.8499 33.082C62.2325 32.9397 61.3139 32.1505 60.8739 28.9161C58.9981 30.6369 56.9151 32.2412 54.2108 33.082L54.1979 33.095C54.1334 33.108 54.0685 33.1207 53.991 33.1469C52.8136 33.4961 51.5069 33.703 50.0578 33.703C48.6473 33.703 47.302 33.535 46.0857 33.1469C43.8733 32.4352 42.1525 30.9475 41.2339 28.3726C41.1564 28.4504 41.027 28.5539 40.8457 28.7091C40.7424 28.8126 40.6259 28.9031 40.5222 29.0068C38.6721 30.6887 36.6149 32.254 33.9499 33.095C33.885 33.108 33.8202 33.1207 33.7427 33.1469C32.5524 33.4961 31.2457 33.703 29.8095 33.703C28.3864 33.703 27.0407 33.535 25.8374 33.1469C22.6678 32.1375 20.4552 29.5759 20.2742 24.4267V13.0674C20.2742 12.9121 20.2742 12.7827 20.2612 12.6404C20.1319 10.6611 18.9931 10.2341 16.6257 10.2341C15.5906 10.2341 14.5295 10.415 13.7403 10.5962V33.1469H0V0.621224H9.7295C11.7607 0.621224 12.9383 1.29377 13.417 5.17511C15.2282 3.37705 17.4536 1.69514 20.2612 0.763567C20.4033 0.71171 20.5459 0.659852 20.701 0.621224C22.0077 0.233089 23.4441 0 25.0096 0C26.4584 0 27.8041 0.181498 28.9944 0.621224C31.8407 1.63032 33.7687 4.04986 33.9369 8.75908V20.8819C33.9369 21.037 33.9369 21.1923 33.9499 21.3217C34.1052 23.4047 35.3858 23.8443 37.7537 23.8443C38.6721 23.8443 39.7332 23.6505 40.5222 23.4176V0.621224H54.2108V21.3992C54.3532 22.9906 55.1943 23.5856 56.695 23.7668C57.0963 23.8187 57.5231 23.8443 58.0017 23.8443C58.9333 23.8443 59.9813 23.6505 60.7834 23.4176V0.621224H74.2004Z" fill="#3E3E3E"/>
<path d="M113.138 0.616211V33.1484H103.465C101.371 33.1484 100.261 32.5942 99.7682 28.7124C96.9953 31.3002 93.7303 33.703 88.7397 33.703C83.4403 33.703 79.1895 31.4234 79.1895 23.7216V0.616211H92.8675V20.8873C92.8675 23.3518 94.1617 23.8447 96.6878 23.8447C97.6121 23.8447 98.6594 23.6598 99.4599 23.4136V0.616211H113.138Z" fill="#3E3E3E"/>
</g>
<defs>
<clipPath id="clip0_27_5717">
<rect width="113.748" height="33.7031" fill="white"/>
</clipPath>
</defs>
</svg>
