<svg width="134" height="29" viewBox="0 0 134 29" fill="none" xmlns="http://www.w3.org/2000/svg">
<g clip-path="url(#clip0_27_5751)">
<path d="M40.1282 0.025006L29.1138 15.91V6.08765H29.1333C29.1335 4.76069 28.6976 3.47 27.8919 2.41204C27.0862 1.35408 25.9549 0.586813 24.6701 0.227039C23.3853 -0.132735 22.0175 -0.0653111 20.7748 0.419047C19.5321 0.903406 18.4827 1.77816 17.7861 2.91016L0 28.5586H9.91711L20.9485 12.6521V22.4401C20.9484 23.7622 21.3813 25.0483 22.1817 26.1041C22.982 27.16 24.1063 27.9282 25.3846 28.2925C26.663 28.6569 28.0259 28.5977 29.2674 28.1238C30.5089 27.6499 31.5614 26.7872 32.2661 25.6659L50.0453 0.025006H40.1282Z" fill="#3E3E3E"/>
<path d="M119.915 0.0244141H111.75V28.5594H119.915V0.0244141Z" fill="#3E3E3E"/>
<path d="M56.9985 28.5591L57.8851 27.2798L62.4562 20.6848V6.08765H62.4756C62.4759 4.7607 62.04 3.47 61.2343 2.41205C60.4286 1.35409 59.2972 0.586813 58.0125 0.227039C56.7277 -0.132735 55.3599 -0.0653111 54.1172 0.419047C52.8745 0.903406 51.8251 1.77816 51.1286 2.91017L33.3496 28.5588H43.2657L54.2909 12.6534V28.5588L56.9985 28.5591Z" fill="#3E3E3E"/>
<path d="M109.218 28.5591V6.08738H109.237C109.238 4.76042 108.801 3.46973 107.996 2.41177C107.19 1.35381 106.059 0.586547 104.774 0.226773C103.489 -0.133001 102.122 -0.0655772 100.879 0.418781C99.6358 0.903138 98.5866 1.77789 97.8898 2.90989L88.8575 15.9365V6.08738H88.8768C88.8775 4.76018 88.441 3.46921 87.6357 2.41106C86.8297 1.35291 85.6979 0.585561 84.413 0.225871C83.1281 -0.13382 81.7599 -0.0661462 80.5173 0.418587C79.2741 0.903317 78.2249 1.77856 77.5289 2.91101L59.75 28.5591H69.666L80.6913 12.6538V22.4395H80.7107C80.7099 23.7621 81.1427 25.0488 81.9428 26.1051C82.7437 27.1615 83.868 27.9301 85.1469 28.2945C86.4259 28.659 87.7889 28.5996 89.0307 28.1253C90.2725 27.651 91.3254 26.7876 92.0296 25.6657L101.053 12.6518V28.5588L109.218 28.5591Z" fill="#3E3E3E"/>
<path d="M131.319 6.62293H130.716V4.66919C130.716 4.53264 130.661 4.40167 130.565 4.3051C130.467 4.20855 130.336 4.1543 130.198 4.1543C130.06 4.1543 129.929 4.20855 129.832 4.3051C129.735 4.40167 129.68 4.53264 129.68 4.66919V7.13686C129.68 7.20448 129.693 7.27145 129.719 7.33394C129.745 7.39642 129.784 7.45323 129.831 7.50104C129.88 7.54885 129.937 7.58677 129.999 7.61265C130.063 7.63853 130.13 7.65191 130.198 7.65191H131.319C131.457 7.65191 131.588 7.59763 131.686 7.50104C131.783 7.40445 131.838 7.27346 131.838 7.13686C131.838 7.00027 131.783 6.86926 131.686 6.77268C131.588 6.67609 131.457 6.62182 131.319 6.62182V6.62293Z" fill="#3E3E3E"/>
<path d="M128.585 4.02637C128.452 4.02653 128.321 4.06057 128.205 4.12524C128.089 4.18991 127.992 4.28305 127.922 4.39579L126.776 6.04836V4.84865C126.778 4.83226 126.779 4.81558 126.779 4.79864C126.779 4.63035 126.723 4.46668 126.621 4.33255C126.519 4.1984 126.375 4.10114 126.212 4.05553C126.049 4.00993 125.876 4.01849 125.718 4.07991C125.561 4.14133 125.428 4.25225 125.339 4.39579L123.641 6.84577C123.601 6.90138 123.572 6.96442 123.556 7.03121C123.54 7.098 123.539 7.16719 123.551 7.23473C123.563 7.30225 123.588 7.36676 123.625 7.42448C123.662 7.48216 123.711 7.53198 123.767 7.57087C123.824 7.60976 123.888 7.63698 123.955 7.65096C124.023 7.66494 124.092 7.66538 124.16 7.6523C124.228 7.63921 124.292 7.61281 124.349 7.57467C124.407 7.53652 124.456 7.48737 124.494 7.43015L125.74 5.63196V6.87339C125.74 6.90274 125.743 6.93204 125.747 6.96098C125.766 7.1202 125.834 7.26983 125.941 7.38915C126.049 7.50849 126.191 7.59155 126.348 7.62687C126.505 7.66226 126.67 7.64806 126.819 7.58641C126.968 7.5247 127.093 7.41853 127.179 7.2826L128.323 5.63169V7.13091C128.323 7.2675 128.378 7.3985 128.475 7.4951C128.572 7.59169 128.704 7.64598 128.841 7.64598C128.979 7.64598 129.111 7.59169 129.208 7.4951C129.305 7.3985 129.36 7.2675 129.36 7.13091V4.84893C129.36 4.83235 129.362 4.81577 129.362 4.79892C129.361 4.59416 129.279 4.39787 129.134 4.25307C128.988 4.10826 128.791 4.02673 128.585 4.02637Z" fill="#3E3E3E"/>
<path d="M127.722 12.1734C126.512 12.1734 125.328 11.8164 124.321 11.1476C123.314 10.4787 122.529 9.52814 122.066 8.41595C121.602 7.30376 121.481 6.07993 121.717 4.89923C121.953 3.71853 122.536 2.63399 123.393 1.78276C124.249 0.931517 125.34 0.351813 126.528 0.116957C127.715 -0.117899 128.946 0.0026361 130.065 0.463323C131.184 0.924007 132.14 1.70416 132.813 2.70511C133.486 3.70606 133.845 4.88285 133.845 6.08668C133.843 7.70039 133.197 9.24743 132.049 10.3885C130.902 11.5296 129.345 12.1714 127.722 12.1734ZM127.722 1.10245C126.731 1.10251 125.761 1.39488 124.937 1.94258C124.113 2.49029 123.47 3.26874 123.09 4.17949C122.711 5.09025 122.611 6.09241 122.806 7.05923C122.999 8.02608 123.476 8.91415 124.177 9.61119C124.879 10.3082 125.772 10.7829 126.744 10.9752C127.717 11.1675 128.725 11.0688 129.641 10.6915C130.557 10.3143 131.34 9.67537 131.891 8.85578C132.442 8.03612 132.736 7.07246 132.736 6.08668C132.735 4.76526 132.206 3.49842 131.265 2.56408C130.325 1.62974 129.052 1.10419 127.722 1.10273V1.10245Z" fill="#3E3E3E"/>
</g>
<defs>
<clipPath id="clip0_27_5751">
<rect width="133.846" height="29" fill="white"/>
</clipPath>
</defs>
</svg>
