<svg width="140" height="39" viewBox="0 0 140 39" fill="none" xmlns="http://www.w3.org/2000/svg">
<g clip-path="url(#clip0_27_5723)">
<path d="M40.3432 9.46707V11.4718C39.191 9.97856 37.0589 8.95558 34.5858 8.95558C28.744 8.95558 24.3936 14.1154 24.3936 20.1725C24.3936 26.2296 28.7009 31.3894 34.5858 31.3894C37.0589 31.3894 39.191 30.4077 40.3432 28.8301V30.8348H47.6351V9.46707H40.3432ZM50.153 0V30.833H57.7016V19.4456C57.7016 17.2274 58.7676 15.9065 60.4744 15.9065C62.1811 15.9065 63.0767 17.0587 63.0767 19.1908V30.833H70.6252V17.3997C70.6252 12.1968 67.8111 8.95558 63.2903 8.95558C60.8602 8.95558 58.983 9.89421 57.6603 11.5579V0H50.1548H50.153ZM119.197 20.1725C119.197 26.5688 114.292 31.3894 107.768 31.3894C101.245 31.3894 96.3398 26.5706 96.3398 20.1725C96.3398 13.7744 101.245 8.95558 107.768 8.95558C114.292 8.95558 119.197 13.7744 119.197 20.1725ZM95.0583 20.1725C95.0583 26.5688 90.1534 31.3894 83.6297 31.3894C77.1059 31.3894 72.201 26.5706 72.201 20.1725C72.201 13.7744 77.1059 8.95558 83.6297 8.95558C90.1534 8.95558 95.0583 13.7744 95.0583 20.1725ZM0 9.46707L9.12607 31.0035L5.84176 38.7656H13.8587L26.0142 9.46707H18.0386L13.0924 22.0049L8.18744 9.46707H0ZM36.122 24.5641C33.6058 24.5641 31.6873 22.6456 31.6873 20.1707C31.6873 17.6958 33.6058 15.7773 36.122 15.7773C38.6382 15.7773 40.5155 17.6958 40.5155 20.1707C40.5155 22.6456 38.5969 24.5641 36.122 24.5641ZM87.8957 20.1707C87.8957 17.7819 86.1046 15.8634 83.6314 15.8634C81.1583 15.8634 79.3672 17.7819 79.3672 20.1707C79.3672 22.5594 81.1583 24.478 83.6314 24.478C86.1046 24.478 87.8957 22.5594 87.8957 20.1707ZM112.034 20.1707C112.034 17.7819 110.243 15.8634 107.77 15.8634C105.297 15.8634 103.506 17.7819 103.506 20.1707C103.506 22.5594 105.297 24.478 107.77 24.478C110.243 24.478 112.034 22.5594 112.034 20.1707ZM120.138 26.3122C120.138 28.9988 122.227 31.2171 125.042 31.2171C127.858 31.2171 130.118 28.9145 130.118 26.1417C130.118 23.3689 128.029 21.2367 125.213 21.2367C122.397 21.2367 120.138 23.5824 120.138 26.3122ZM130.882 0L122.865 19.3613H131.821L139.838 0H130.882Z" fill="#3E3E3E"/>
</g>
<defs>
<clipPath id="clip0_27_5723">
<rect width="139.838" height="38.7656" fill="white"/>
</clipPath>
</defs>
</svg>
